<?xml version="1.0" encoding="UTF-8" standalone="no"?>
<!DOCTYPE svg PUBLIC "-//W3C//DTD SVG 1.1//EN"
 "http://www.w3.org/Graphics/SVG/1.1/DTD/svg11.dtd">
<!-- Generated by graphviz version 2.43.0 (0)
 -->
<!-- Title: global_vars Pages: 1 -->
<svg width="2487pt" height="689pt"
 viewBox="0.00 0.00 2487.00 689.00" xmlns="http://www.w3.org/2000/svg" xmlns:xlink="http://www.w3.org/1999/xlink">
<g id="graph0" class="graph" transform="scale(1 1) rotate(0) translate(4 685)">
<title>global_vars</title>
<polygon fill="white" stroke="transparent" points="-4,4 -4,-685 2483,-685 2483,4 -4,4"/>
<!-- N1 -->
<g id="node1" class="node">
<title>N1</title>
<polygon fill="none" stroke="black" points="864.5,-644.5 864.5,-680.5 1096.5,-680.5 1096.5,-644.5 864.5,-644.5"/>
<text text-anchor="middle" x="936" y="-658.8" font-family="Times,serif" font-size="14.00">NODE PROGRAM</text>
<polyline fill="none" stroke="black" points="1007.5,-644.5 1007.5,-680.5 "/>
<text text-anchor="middle" x="1052" y="-658.8" font-family="Times,serif" font-size="14.00">Nb. ops: 2</text>
</g>
<!-- N2 -->
<g id="node2" class="node">
<title>N2</title>
<polygon fill="none" stroke="black" points="775,-566.5 775,-602.5 874,-602.5 874,-566.5 775,-566.5"/>
<text text-anchor="middle" x="824.5" y="-580.8" font-family="Times,serif" font-size="14.00">NODE LIST</text>
</g>
<!-- N1&#45;&gt;N2 -->
<g id="edge15" class="edge">
<title>N1&#45;&gt;N2</title>
<path fill="none" stroke="black" d="M945.49,-644.44C922.79,-633.38 893.02,-618.88 868.69,-607.03"/>
<polygon fill="black" stroke="black" points="870.18,-603.86 859.66,-602.63 867.12,-610.16 870.18,-603.86"/>
</g>
<!-- N17 -->
<g id="node17" class="node">
<title>N17</title>
<polygon fill="none" stroke="black" points="1171,-561.5 1171,-607.5 1370,-607.5 1370,-561.5 1171,-561.5"/>
<text text-anchor="middle" x="1226" y="-592.3" font-family="Times,serif" font-size="14.00">NODE FUNC</text>
<polyline fill="none" stroke="black" points="1281,-584.5 1281,-607.5 "/>
<text text-anchor="middle" x="1325.5" y="-592.3" font-family="Times,serif" font-size="14.00">Nb. ops: 3</text>
<polyline fill="none" stroke="black" points="1171,-584.5 1370,-584.5 "/>
<text text-anchor="middle" x="1270.5" y="-569.3" font-family="Times,serif" font-size="14.00">offset: 0</text>
</g>
<!-- N1&#45;&gt;N17 -->
<g id="edge40" class="edge">
<title>N1&#45;&gt;N17</title>
<path fill="none" stroke="black" d="M1045.58,-644.44C1084.16,-634.33 1133.71,-621.35 1176.48,-610.14"/>
<polygon fill="black" stroke="black" points="1177.56,-613.48 1186.34,-607.55 1175.78,-606.7 1177.56,-613.48"/>
</g>
<!-- N3 -->
<g id="node3" class="node">
<title>N3</title>
<polygon fill="none" stroke="black" points="532,-483.5 532,-519.5 631,-519.5 631,-483.5 532,-483.5"/>
<text text-anchor="middle" x="581.5" y="-497.8" font-family="Times,serif" font-size="14.00">NODE LIST</text>
</g>
<!-- N2&#45;&gt;N3 -->
<g id="edge11" class="edge">
<title>N2&#45;&gt;N3</title>
<path fill="none" stroke="black" d="M774.79,-567.96C738.34,-556.43 687.7,-540.16 643.5,-525 641.59,-524.35 639.65,-523.67 637.69,-522.99"/>
<polygon fill="black" stroke="black" points="638.41,-519.53 627.82,-519.51 636.09,-526.14 638.41,-519.53"/>
</g>
<!-- N14 -->
<g id="node14" class="node">
<title>N14</title>
<polygon fill="none" stroke="black" points="653,-483.5 653,-519.5 996,-519.5 996,-483.5 653,-483.5"/>
<text text-anchor="middle" x="715.5" y="-497.8" font-family="Times,serif" font-size="14.00">NODE AFFECT</text>
<polyline fill="none" stroke="black" points="778,-483.5 778,-519.5 "/>
<text text-anchor="middle" x="842.5" y="-497.8" font-family="Times,serif" font-size="14.00">Type: TYPE INT</text>
<polyline fill="none" stroke="black" points="907,-483.5 907,-519.5 "/>
<text text-anchor="middle" x="951.5" y="-497.8" font-family="Times,serif" font-size="14.00">Nb. ops: 2</text>
</g>
<!-- N2&#45;&gt;N14 -->
<g id="edge14" class="edge">
<title>N2&#45;&gt;N14</title>
<path fill="none" stroke="black" d="M824.5,-566.32C824.5,-555.69 824.5,-541.81 824.5,-529.7"/>
<polygon fill="black" stroke="black" points="828,-529.65 824.5,-519.65 821,-529.65 828,-529.65"/>
</g>
<!-- N4 -->
<g id="node4" class="node">
<title>N4</title>
<polygon fill="none" stroke="black" points="246.5,-400.5 246.5,-436.5 452.5,-436.5 452.5,-400.5 246.5,-400.5"/>
<text text-anchor="middle" x="305" y="-414.8" font-family="Times,serif" font-size="14.00">NODE DECLS</text>
<polyline fill="none" stroke="black" points="363.5,-400.5 363.5,-436.5 "/>
<text text-anchor="middle" x="408" y="-414.8" font-family="Times,serif" font-size="14.00">Nb. ops: 2</text>
</g>
<!-- N3&#45;&gt;N4 -->
<g id="edge5" class="edge">
<title>N3&#45;&gt;N4</title>
<path fill="none" stroke="black" d="M532.58,-483.42C496.18,-470.71 446.36,-453.32 407.88,-439.88"/>
<polygon fill="black" stroke="black" points="408.95,-436.55 398.35,-436.56 406.64,-443.16 408.95,-436.55"/>
</g>
<!-- N9 -->
<g id="node9" class="node">
<title>N9</title>
<polygon fill="none" stroke="black" points="478.5,-400.5 478.5,-436.5 684.5,-436.5 684.5,-400.5 478.5,-400.5"/>
<text text-anchor="middle" x="537" y="-414.8" font-family="Times,serif" font-size="14.00">NODE DECLS</text>
<polyline fill="none" stroke="black" points="595.5,-400.5 595.5,-436.5 "/>
<text text-anchor="middle" x="640" y="-414.8" font-family="Times,serif" font-size="14.00">Nb. ops: 2</text>
</g>
<!-- N3&#45;&gt;N9 -->
<g id="edge10" class="edge">
<title>N3&#45;&gt;N9</title>
<path fill="none" stroke="black" d="M581.5,-483.32C581.5,-472.69 581.5,-458.81 581.5,-446.7"/>
<polygon fill="black" stroke="black" points="585,-446.65 581.5,-436.65 578,-446.65 585,-446.65"/>
</g>
<!-- N5 -->
<g id="node5" class="node">
<title>N5</title>
<polygon fill="none" stroke="black" points="0,-322.5 0,-358.5 233,-358.5 233,-322.5 0,-322.5"/>
<text text-anchor="middle" x="52" y="-336.8" font-family="Times,serif" font-size="14.00">NODE TYPE</text>
<polyline fill="none" stroke="black" points="104,-322.5 104,-358.5 "/>
<text text-anchor="middle" x="168.5" y="-336.8" font-family="Times,serif" font-size="14.00">Type: TYPE INT</text>
</g>
<!-- N4&#45;&gt;N5 -->
<g id="edge1" class="edge">
<title>N4&#45;&gt;N5</title>
<path fill="none" stroke="black" d="M297.21,-400.44C262.11,-388.99 215.7,-373.86 178.7,-361.79"/>
<polygon fill="black" stroke="black" points="179.61,-358.4 169.02,-358.63 177.44,-365.06 179.61,-358.4"/>
</g>
<!-- N6 -->
<g id="node6" class="node">
<title>N6</title>
<polygon fill="none" stroke="black" points="251.5,-322.5 251.5,-358.5 447.5,-358.5 447.5,-322.5 251.5,-322.5"/>
<text text-anchor="middle" x="305" y="-336.8" font-family="Times,serif" font-size="14.00">NODE DECL</text>
<polyline fill="none" stroke="black" points="358.5,-322.5 358.5,-358.5 "/>
<text text-anchor="middle" x="403" y="-336.8" font-family="Times,serif" font-size="14.00">Nb. ops: 2</text>
</g>
<!-- N4&#45;&gt;N6 -->
<g id="edge4" class="edge">
<title>N4&#45;&gt;N6</title>
<path fill="none" stroke="black" d="M349.5,-400.25C349.5,-391.02 349.5,-379.43 349.5,-368.99"/>
<polygon fill="black" stroke="black" points="353,-368.68 349.5,-358.68 346,-368.68 353,-368.68"/>
</g>
<!-- N7 -->
<g id="node7" class="node">
<title>N7</title>
<polygon fill="none" stroke="black" points="144,-239.5 144,-285.5 387,-285.5 387,-239.5 144,-239.5"/>
<text text-anchor="middle" x="201" y="-270.3" font-family="Times,serif" font-size="14.00">NODE IDENT</text>
<polyline fill="none" stroke="black" points="258,-262.5 258,-285.5 "/>
<text text-anchor="middle" x="322.5" y="-270.3" font-family="Times,serif" font-size="14.00">Type: TYPE INT</text>
<polyline fill="none" stroke="black" points="144,-262.5 387,-262.5 "/>
<text text-anchor="middle" x="186.5" y="-247.3" font-family="Times,serif" font-size="14.00">Global: 1</text>
<polyline fill="none" stroke="black" points="229,-239.5 229,-262.5 "/>
<text text-anchor="middle" x="267" y="-247.3" font-family="Times,serif" font-size="14.00">Ident: a</text>
<polyline fill="none" stroke="black" points="305,-239.5 305,-262.5 "/>
<text text-anchor="middle" x="346" y="-247.3" font-family="Times,serif" font-size="14.00">Offset: 0</text>
</g>
<!-- N6&#45;&gt;N7 -->
<g id="edge2" class="edge">
<title>N6&#45;&gt;N7</title>
<path fill="none" stroke="black" d="M330.44,-322.25C320.69,-313.43 308.55,-302.45 297.42,-292.38"/>
<polygon fill="black" stroke="black" points="299.68,-289.7 289.92,-285.59 294.98,-294.9 299.68,-289.7"/>
</g>
<!-- N8 -->
<g id="node8" class="node">
<title>N8</title>
<polygon fill="none" stroke="black" points="405,-244.5 405,-280.5 464,-280.5 464,-244.5 405,-244.5"/>
<text text-anchor="middle" x="434.5" y="-258.8" font-family="Times,serif" font-size="14.00">NULL</text>
</g>
<!-- N6&#45;&gt;N8 -->
<g id="edge3" class="edge">
<title>N6&#45;&gt;N8</title>
<path fill="none" stroke="black" d="M368.79,-322.25C380.31,-311.95 395.11,-298.72 407.75,-287.42"/>
<polygon fill="black" stroke="black" points="410.17,-289.95 415.29,-280.68 405.5,-284.73 410.17,-289.95"/>
</g>
<!-- N10 -->
<g id="node10" class="node">
<title>N10</title>
<polygon fill="none" stroke="black" points="465,-322.5 465,-358.5 698,-358.5 698,-322.5 465,-322.5"/>
<text text-anchor="middle" x="517" y="-336.8" font-family="Times,serif" font-size="14.00">NODE TYPE</text>
<polyline fill="none" stroke="black" points="569,-322.5 569,-358.5 "/>
<text text-anchor="middle" x="633.5" y="-336.8" font-family="Times,serif" font-size="14.00">Type: TYPE INT</text>
</g>
<!-- N9&#45;&gt;N10 -->
<g id="edge6" class="edge">
<title>N9&#45;&gt;N10</title>
<path fill="none" stroke="black" d="M581.5,-400.25C581.5,-391.02 581.5,-379.43 581.5,-368.99"/>
<polygon fill="black" stroke="black" points="585,-368.68 581.5,-358.68 578,-368.68 585,-368.68"/>
</g>
<!-- N11 -->
<g id="node11" class="node">
<title>N11</title>
<polygon fill="none" stroke="black" points="716.5,-322.5 716.5,-358.5 912.5,-358.5 912.5,-322.5 716.5,-322.5"/>
<text text-anchor="middle" x="770" y="-336.8" font-family="Times,serif" font-size="14.00">NODE DECL</text>
<polyline fill="none" stroke="black" points="823.5,-322.5 823.5,-358.5 "/>
<text text-anchor="middle" x="868" y="-336.8" font-family="Times,serif" font-size="14.00">Nb. ops: 2</text>
</g>
<!-- N9&#45;&gt;N11 -->
<g id="edge9" class="edge">
<title>N9&#45;&gt;N11</title>
<path fill="none" stroke="black" d="M633.79,-400.44C668.89,-388.99 715.3,-373.86 752.3,-361.79"/>
<polygon fill="black" stroke="black" points="753.56,-365.06 761.98,-358.63 751.39,-358.4 753.56,-365.06"/>
</g>
<!-- N12 -->
<g id="node12" class="node">
<title>N12</title>
<polygon fill="none" stroke="black" points="630,-239.5 630,-285.5 873,-285.5 873,-239.5 630,-239.5"/>
<text text-anchor="middle" x="687" y="-270.3" font-family="Times,serif" font-size="14.00">NODE IDENT</text>
<polyline fill="none" stroke="black" points="744,-262.5 744,-285.5 "/>
<text text-anchor="middle" x="808.5" y="-270.3" font-family="Times,serif" font-size="14.00">Type: TYPE INT</text>
<polyline fill="none" stroke="black" points="630,-262.5 873,-262.5 "/>
<text text-anchor="middle" x="672.5" y="-247.3" font-family="Times,serif" font-size="14.00">Global: 1</text>
<polyline fill="none" stroke="black" points="715,-239.5 715,-262.5 "/>
<text text-anchor="middle" x="753" y="-247.3" font-family="Times,serif" font-size="14.00">Ident: x</text>
<polyline fill="none" stroke="black" points="791,-239.5 791,-262.5 "/>
<text text-anchor="middle" x="832" y="-247.3" font-family="Times,serif" font-size="14.00">Offset: 0</text>
</g>
<!-- N11&#45;&gt;N12 -->
<g id="edge7" class="edge">
<title>N11&#45;&gt;N12</title>
<path fill="none" stroke="black" d="M800.2,-322.25C793.17,-313.77 784.49,-303.29 776.41,-293.55"/>
<polygon fill="black" stroke="black" points="778.89,-291.06 769.81,-285.59 773.5,-295.52 778.89,-291.06"/>
</g>
<!-- N13 -->
<g id="node13" class="node">
<title>N13</title>
<polygon fill="none" stroke="black" points="891,-239.5 891,-285.5 1140,-285.5 1140,-239.5 891,-239.5"/>
<text text-anchor="middle" x="951" y="-270.3" font-family="Times,serif" font-size="14.00">NODE INTVAL</text>
<polyline fill="none" stroke="black" points="1011,-262.5 1011,-285.5 "/>
<text text-anchor="middle" x="1075.5" y="-270.3" font-family="Times,serif" font-size="14.00">Type: TYPE INT</text>
<polyline fill="none" stroke="black" points="891,-262.5 1140,-262.5 "/>
<text text-anchor="middle" x="1015.5" y="-247.3" font-family="Times,serif" font-size="14.00">Value: 4</text>
</g>
<!-- N11&#45;&gt;N13 -->
<g id="edge8" class="edge">
<title>N11&#45;&gt;N13</title>
<path fill="none" stroke="black" d="M859.61,-322.44C885.5,-312.65 918.53,-300.17 947.51,-289.21"/>
<polygon fill="black" stroke="black" points="949.06,-292.37 957.17,-285.55 946.58,-285.82 949.06,-292.37"/>
</g>
<!-- N15 -->
<g id="node15" class="node">
<title>N15</title>
<polygon fill="none" stroke="black" points="703,-395.5 703,-441.5 946,-441.5 946,-395.5 703,-395.5"/>
<text text-anchor="middle" x="760" y="-426.3" font-family="Times,serif" font-size="14.00">NODE IDENT</text>
<polyline fill="none" stroke="black" points="817,-418.5 817,-441.5 "/>
<text text-anchor="middle" x="881.5" y="-426.3" font-family="Times,serif" font-size="14.00">Type: TYPE INT</text>
<polyline fill="none" stroke="black" points="703,-418.5 946,-418.5 "/>
<text text-anchor="middle" x="745.5" y="-403.3" font-family="Times,serif" font-size="14.00">Global: 1</text>
<polyline fill="none" stroke="black" points="788,-395.5 788,-418.5 "/>
<text text-anchor="middle" x="826" y="-403.3" font-family="Times,serif" font-size="14.00">Ident: a</text>
<polyline fill="none" stroke="black" points="864,-395.5 864,-418.5 "/>
<text text-anchor="middle" x="905" y="-403.3" font-family="Times,serif" font-size="14.00">Offset: 0</text>
</g>
<!-- N14&#45;&gt;N15 -->
<g id="edge12" class="edge">
<title>N14&#45;&gt;N15</title>
<path fill="none" stroke="black" d="M824.5,-483.32C824.5,-474.1 824.5,-462.43 824.5,-451.61"/>
<polygon fill="black" stroke="black" points="828,-451.59 824.5,-441.59 821,-451.59 828,-451.59"/>
</g>
<!-- N16 -->
<g id="node16" class="node">
<title>N16</title>
<polygon fill="none" stroke="black" points="964,-395.5 964,-441.5 1213,-441.5 1213,-395.5 964,-395.5"/>
<text text-anchor="middle" x="1024" y="-426.3" font-family="Times,serif" font-size="14.00">NODE INTVAL</text>
<polyline fill="none" stroke="black" points="1084,-418.5 1084,-441.5 "/>
<text text-anchor="middle" x="1148.5" y="-426.3" font-family="Times,serif" font-size="14.00">Type: TYPE INT</text>
<polyline fill="none" stroke="black" points="964,-418.5 1213,-418.5 "/>
<text text-anchor="middle" x="1088.5" y="-403.3" font-family="Times,serif" font-size="14.00">Value: 0</text>
</g>
<!-- N14&#45;&gt;N16 -->
<g id="edge13" class="edge">
<title>N14&#45;&gt;N16</title>
<path fill="none" stroke="black" d="M880.17,-483.42C916.86,-472.16 965.54,-457.23 1006.62,-444.62"/>
<polygon fill="black" stroke="black" points="1007.81,-447.92 1016.34,-441.64 1005.76,-441.23 1007.81,-447.92"/>
</g>
<!-- N18 -->
<g id="node18" class="node">
<title>N18</title>
<polygon fill="none" stroke="black" points="1014.5,-483.5 1014.5,-519.5 1258.5,-519.5 1258.5,-483.5 1014.5,-483.5"/>
<text text-anchor="middle" x="1066.5" y="-497.8" font-family="Times,serif" font-size="14.00">NODE TYPE</text>
<polyline fill="none" stroke="black" points="1118.5,-483.5 1118.5,-519.5 "/>
<text text-anchor="middle" x="1188.5" y="-497.8" font-family="Times,serif" font-size="14.00">Type: TYPE VOID</text>
</g>
<!-- N17&#45;&gt;N18 -->
<g id="edge16" class="edge">
<title>N17&#45;&gt;N18</title>
<path fill="none" stroke="black" d="M1233.88,-561.37C1215.15,-550.04 1192.4,-536.29 1173.6,-524.93"/>
<polygon fill="black" stroke="black" points="1175.37,-521.91 1165,-519.73 1171.75,-527.9 1175.37,-521.91"/>
</g>
<!-- N19 -->
<g id="node19" class="node">
<title>N19</title>
<polygon fill="none" stroke="black" points="1277,-478.5 1277,-524.5 1532,-524.5 1532,-478.5 1277,-478.5"/>
<text text-anchor="middle" x="1334" y="-509.3" font-family="Times,serif" font-size="14.00">NODE IDENT</text>
<polyline fill="none" stroke="black" points="1391,-501.5 1391,-524.5 "/>
<text text-anchor="middle" x="1461.5" y="-509.3" font-family="Times,serif" font-size="14.00">Type: TYPE VOID</text>
<polyline fill="none" stroke="black" points="1277,-501.5 1532,-501.5 "/>
<text text-anchor="middle" x="1317" y="-486.3" font-family="Times,serif" font-size="14.00">Global: 0</text>
<polyline fill="none" stroke="black" points="1357,-478.5 1357,-501.5 "/>
<text text-anchor="middle" x="1406" y="-486.3" font-family="Times,serif" font-size="14.00">Ident: main</text>
<polyline fill="none" stroke="black" points="1455,-478.5 1455,-501.5 "/>
<text text-anchor="middle" x="1493.5" y="-486.3" font-family="Times,serif" font-size="14.00">Offset: 0</text>
</g>
<!-- N17&#45;&gt;N19 -->
<g id="edge17" class="edge">
<title>N17&#45;&gt;N19</title>
<path fill="none" stroke="black" d="M1307.12,-561.37C1323.22,-551.63 1342.29,-540.11 1359.27,-529.84"/>
<polygon fill="black" stroke="black" points="1361.18,-532.78 1367.93,-524.61 1357.56,-526.78 1361.18,-532.78"/>
</g>
<!-- N20 -->
<g id="node20" class="node">
<title>N20</title>
<polygon fill="none" stroke="black" points="1550,-483.5 1550,-519.5 1757,-519.5 1757,-483.5 1550,-483.5"/>
<text text-anchor="middle" x="1609" y="-497.8" font-family="Times,serif" font-size="14.00">NODE BLOCK</text>
<polyline fill="none" stroke="black" points="1668,-483.5 1668,-519.5 "/>
<text text-anchor="middle" x="1712.5" y="-497.8" font-family="Times,serif" font-size="14.00">Nb. ops: 1</text>
</g>
<!-- N17&#45;&gt;N20 -->
<g id="edge39" class="edge">
<title>N17&#45;&gt;N20</title>
<path fill="none" stroke="black" d="M1370.13,-562.43C1429.84,-549.8 1505.18,-533.87 1563.16,-521.61"/>
<polygon fill="black" stroke="black" points="1563.98,-525.01 1573.04,-519.52 1562.53,-518.16 1563.98,-525.01"/>
</g>
<!-- N21 -->
<g id="node21" class="node">
<title>N21</title>
<polygon fill="none" stroke="black" points="1604,-400.5 1604,-436.5 1703,-436.5 1703,-400.5 1604,-400.5"/>
<text text-anchor="middle" x="1653.5" y="-414.8" font-family="Times,serif" font-size="14.00">NODE LIST</text>
</g>
<!-- N20&#45;&gt;N21 -->
<g id="edge38" class="edge">
<title>N20&#45;&gt;N21</title>
<path fill="none" stroke="black" d="M1653.5,-483.32C1653.5,-472.69 1653.5,-458.81 1653.5,-446.7"/>
<polygon fill="black" stroke="black" points="1657,-446.65 1653.5,-436.65 1650,-446.65 1657,-446.65"/>
</g>
<!-- N22 -->
<g id="node22" class="node">
<title>N22</title>
<polygon fill="none" stroke="black" points="1551,-322.5 1551,-358.5 1650,-358.5 1650,-322.5 1551,-322.5"/>
<text text-anchor="middle" x="1600.5" y="-336.8" font-family="Times,serif" font-size="14.00">NODE LIST</text>
</g>
<!-- N21&#45;&gt;N22 -->
<g id="edge32" class="edge">
<title>N21&#45;&gt;N22</title>
<path fill="none" stroke="black" d="M1641.47,-400.25C1634.63,-390.44 1625.93,-377.96 1618.3,-367.03"/>
<polygon fill="black" stroke="black" points="1621.07,-364.88 1612.48,-358.68 1615.33,-368.88 1621.07,-364.88"/>
</g>
<!-- N37 -->
<g id="node37" class="node">
<title>N37</title>
<polygon fill="none" stroke="black" points="1668,-322.5 1668,-358.5 2011,-358.5 2011,-322.5 1668,-322.5"/>
<text text-anchor="middle" x="1730.5" y="-336.8" font-family="Times,serif" font-size="14.00">NODE AFFECT</text>
<polyline fill="none" stroke="black" points="1793,-322.5 1793,-358.5 "/>
<text text-anchor="middle" x="1857.5" y="-336.8" font-family="Times,serif" font-size="14.00">Type: TYPE INT</text>
<polyline fill="none" stroke="black" points="1922,-322.5 1922,-358.5 "/>
<text text-anchor="middle" x="1966.5" y="-336.8" font-family="Times,serif" font-size="14.00">Nb. ops: 2</text>
</g>
<!-- N21&#45;&gt;N37 -->
<g id="edge37" class="edge">
<title>N21&#45;&gt;N37</title>
<path fill="none" stroke="black" d="M1695.24,-400.44C1722.67,-389.24 1758.74,-374.5 1787.95,-362.56"/>
<polygon fill="black" stroke="black" points="1789.64,-365.65 1797.58,-358.63 1786.99,-359.17 1789.64,-365.65"/>
</g>
<!-- N23 -->
<g id="node23" class="node">
<title>N23</title>
<polygon fill="none" stroke="black" points="1199,-244.5 1199,-280.5 1542,-280.5 1542,-244.5 1199,-244.5"/>
<text text-anchor="middle" x="1261.5" y="-258.8" font-family="Times,serif" font-size="14.00">NODE AFFECT</text>
<polyline fill="none" stroke="black" points="1324,-244.5 1324,-280.5 "/>
<text text-anchor="middle" x="1388.5" y="-258.8" font-family="Times,serif" font-size="14.00">Type: TYPE INT</text>
<polyline fill="none" stroke="black" points="1453,-244.5 1453,-280.5 "/>
<text text-anchor="middle" x="1497.5" y="-258.8" font-family="Times,serif" font-size="14.00">Nb. ops: 2</text>
</g>
<!-- N22&#45;&gt;N23 -->
<g id="edge20" class="edge">
<title>N22&#45;&gt;N23</title>
<path fill="none" stroke="black" d="M1550.88,-323.1C1515.96,-311.57 1469.01,-296.05 1431.76,-283.74"/>
<polygon fill="black" stroke="black" points="1432.62,-280.34 1422.03,-280.53 1430.42,-286.99 1432.62,-280.34"/>
</g>
<!-- N26 -->
<g id="node26" class="node">
<title>N26</title>
<polygon fill="none" stroke="black" points="1564,-244.5 1564,-280.5 1663,-280.5 1663,-244.5 1564,-244.5"/>
<text text-anchor="middle" x="1613.5" y="-258.8" font-family="Times,serif" font-size="14.00">NODE LIST</text>
</g>
<!-- N22&#45;&gt;N26 -->
<g id="edge31" class="edge">
<title>N22&#45;&gt;N26</title>
<path fill="none" stroke="black" d="M1603.45,-322.25C1605.05,-312.93 1607.05,-301.19 1608.85,-290.67"/>
<polygon fill="black" stroke="black" points="1612.33,-291.12 1610.56,-280.68 1605.43,-289.94 1612.33,-291.12"/>
</g>
<!-- N24 -->
<g id="node24" class="node">
<title>N24</title>
<polygon fill="none" stroke="black" points="988,-156.5 988,-202.5 1231,-202.5 1231,-156.5 988,-156.5"/>
<text text-anchor="middle" x="1045" y="-187.3" font-family="Times,serif" font-size="14.00">NODE IDENT</text>
<polyline fill="none" stroke="black" points="1102,-179.5 1102,-202.5 "/>
<text text-anchor="middle" x="1166.5" y="-187.3" font-family="Times,serif" font-size="14.00">Type: TYPE INT</text>
<polyline fill="none" stroke="black" points="988,-179.5 1231,-179.5 "/>
<text text-anchor="middle" x="1030.5" y="-164.3" font-family="Times,serif" font-size="14.00">Global: 1</text>
<polyline fill="none" stroke="black" points="1073,-156.5 1073,-179.5 "/>
<text text-anchor="middle" x="1111" y="-164.3" font-family="Times,serif" font-size="14.00">Ident: x</text>
<polyline fill="none" stroke="black" points="1149,-156.5 1149,-179.5 "/>
<text text-anchor="middle" x="1190" y="-164.3" font-family="Times,serif" font-size="14.00">Offset: 0</text>
</g>
<!-- N23&#45;&gt;N24 -->
<g id="edge18" class="edge">
<title>N23&#45;&gt;N24</title>
<path fill="none" stroke="black" d="M1315.47,-244.42C1279.19,-233.16 1231.06,-218.23 1190.45,-205.62"/>
<polygon fill="black" stroke="black" points="1191.42,-202.26 1180.84,-202.64 1189.35,-208.95 1191.42,-202.26"/>
</g>
<!-- N25 -->
<g id="node25" class="node">
<title>N25</title>
<polygon fill="none" stroke="black" points="1249,-156.5 1249,-202.5 1492,-202.5 1492,-156.5 1249,-156.5"/>
<text text-anchor="middle" x="1306" y="-187.3" font-family="Times,serif" font-size="14.00">NODE IDENT</text>
<polyline fill="none" stroke="black" points="1363,-179.5 1363,-202.5 "/>
<text text-anchor="middle" x="1427.5" y="-187.3" font-family="Times,serif" font-size="14.00">Type: TYPE INT</text>
<polyline fill="none" stroke="black" points="1249,-179.5 1492,-179.5 "/>
<text text-anchor="middle" x="1291.5" y="-164.3" font-family="Times,serif" font-size="14.00">Global: 1</text>
<polyline fill="none" stroke="black" points="1334,-156.5 1334,-179.5 "/>
<text text-anchor="middle" x="1372" y="-164.3" font-family="Times,serif" font-size="14.00">Ident: a</text>
<polyline fill="none" stroke="black" points="1410,-156.5 1410,-179.5 "/>
<text text-anchor="middle" x="1451" y="-164.3" font-family="Times,serif" font-size="14.00">Offset: 0</text>
</g>
<!-- N23&#45;&gt;N25 -->
<g id="edge19" class="edge">
<title>N23&#45;&gt;N25</title>
<path fill="none" stroke="black" d="M1370.5,-244.32C1370.5,-235.1 1370.5,-223.43 1370.5,-212.61"/>
<polygon fill="black" stroke="black" points="1374,-212.59 1370.5,-202.59 1367,-212.59 1374,-212.59"/>
</g>
<!-- N27 -->
<g id="node27" class="node">
<title>N27</title>
<polygon fill="none" stroke="black" points="1510.5,-161.5 1510.5,-197.5 1716.5,-197.5 1716.5,-161.5 1510.5,-161.5"/>
<text text-anchor="middle" x="1569" y="-175.8" font-family="Times,serif" font-size="14.00">NODE DECLS</text>
<polyline fill="none" stroke="black" points="1627.5,-161.5 1627.5,-197.5 "/>
<text text-anchor="middle" x="1672" y="-175.8" font-family="Times,serif" font-size="14.00">Nb. ops: 2</text>
</g>
<!-- N26&#45;&gt;N27 -->
<g id="edge25" class="edge">
<title>N26&#45;&gt;N27</title>
<path fill="none" stroke="black" d="M1613.5,-244.32C1613.5,-233.69 1613.5,-219.81 1613.5,-207.7"/>
<polygon fill="black" stroke="black" points="1617,-207.65 1613.5,-197.65 1610,-207.65 1617,-207.65"/>
</g>
<!-- N32 -->
<g id="node32" class="node">
<title>N32</title>
<polygon fill="none" stroke="black" points="1742.5,-161.5 1742.5,-197.5 1948.5,-197.5 1948.5,-161.5 1742.5,-161.5"/>
<text text-anchor="middle" x="1801" y="-175.8" font-family="Times,serif" font-size="14.00">NODE DECLS</text>
<polyline fill="none" stroke="black" points="1859.5,-161.5 1859.5,-197.5 "/>
<text text-anchor="middle" x="1904" y="-175.8" font-family="Times,serif" font-size="14.00">Nb. ops: 2</text>
</g>
<!-- N26&#45;&gt;N32 -->
<g id="edge30" class="edge">
<title>N26&#45;&gt;N32</title>
<path fill="none" stroke="black" d="M1662.42,-244.42C1698.82,-231.71 1748.64,-214.32 1787.12,-200.88"/>
<polygon fill="black" stroke="black" points="1788.36,-204.16 1796.65,-197.56 1786.05,-197.55 1788.36,-204.16"/>
</g>
<!-- N28 -->
<g id="node28" class="node">
<title>N28</title>
<polygon fill="none" stroke="black" points="1264,-83.5 1264,-119.5 1497,-119.5 1497,-83.5 1264,-83.5"/>
<text text-anchor="middle" x="1316" y="-97.8" font-family="Times,serif" font-size="14.00">NODE TYPE</text>
<polyline fill="none" stroke="black" points="1368,-83.5 1368,-119.5 "/>
<text text-anchor="middle" x="1432.5" y="-97.8" font-family="Times,serif" font-size="14.00">Type: TYPE INT</text>
</g>
<!-- N27&#45;&gt;N28 -->
<g id="edge21" class="edge">
<title>N27&#45;&gt;N28</title>
<path fill="none" stroke="black" d="M1561.21,-161.44C1526.11,-149.99 1479.7,-134.86 1442.7,-122.79"/>
<polygon fill="black" stroke="black" points="1443.61,-119.4 1433.02,-119.63 1441.44,-126.06 1443.61,-119.4"/>
</g>
<!-- N29 -->
<g id="node29" class="node">
<title>N29</title>
<polygon fill="none" stroke="black" points="1515.5,-83.5 1515.5,-119.5 1711.5,-119.5 1711.5,-83.5 1515.5,-83.5"/>
<text text-anchor="middle" x="1569" y="-97.8" font-family="Times,serif" font-size="14.00">NODE DECL</text>
<polyline fill="none" stroke="black" points="1622.5,-83.5 1622.5,-119.5 "/>
<text text-anchor="middle" x="1667" y="-97.8" font-family="Times,serif" font-size="14.00">Nb. ops: 2</text>
</g>
<!-- N27&#45;&gt;N29 -->
<g id="edge24" class="edge">
<title>N27&#45;&gt;N29</title>
<path fill="none" stroke="black" d="M1613.5,-161.25C1613.5,-152.02 1613.5,-140.43 1613.5,-129.99"/>
<polygon fill="black" stroke="black" points="1617,-129.68 1613.5,-119.68 1610,-129.68 1617,-129.68"/>
</g>
<!-- N30 -->
<g id="node30" class="node">
<title>N30</title>
<polygon fill="none" stroke="black" points="1339,-0.5 1339,-46.5 1582,-46.5 1582,-0.5 1339,-0.5"/>
<text text-anchor="middle" x="1396" y="-31.3" font-family="Times,serif" font-size="14.00">NODE IDENT</text>
<polyline fill="none" stroke="black" points="1453,-23.5 1453,-46.5 "/>
<text text-anchor="middle" x="1517.5" y="-31.3" font-family="Times,serif" font-size="14.00">Type: TYPE INT</text>
<polyline fill="none" stroke="black" points="1339,-23.5 1582,-23.5 "/>
<text text-anchor="middle" x="1381" y="-8.3" font-family="Times,serif" font-size="14.00">Global: 0</text>
<polyline fill="none" stroke="black" points="1423,-0.5 1423,-23.5 "/>
<text text-anchor="middle" x="1461.5" y="-8.3" font-family="Times,serif" font-size="14.00">Ident: b</text>
<polyline fill="none" stroke="black" points="1500,-0.5 1500,-23.5 "/>
<text text-anchor="middle" x="1541" y="-8.3" font-family="Times,serif" font-size="14.00">Offset: 0</text>
</g>
<!-- N29&#45;&gt;N30 -->
<g id="edge22" class="edge">
<title>N29&#45;&gt;N30</title>
<path fill="none" stroke="black" d="M1579.16,-83.44C1559.97,-73.91 1535.62,-61.82 1513.98,-51.07"/>
<polygon fill="black" stroke="black" points="1515.41,-47.87 1504.9,-46.55 1512.3,-54.14 1515.41,-47.87"/>
</g>
<!-- N31 -->
<g id="node31" class="node">
<title>N31</title>
<polygon fill="none" stroke="black" points="1600,-5.5 1600,-41.5 1659,-41.5 1659,-5.5 1600,-5.5"/>
<text text-anchor="middle" x="1629.5" y="-19.8" font-family="Times,serif" font-size="14.00">NULL</text>
</g>
<!-- N29&#45;&gt;N31 -->
<g id="edge23" class="edge">
<title>N29&#45;&gt;N31</title>
<path fill="none" stroke="black" d="M1617.13,-83.25C1619.09,-73.93 1621.57,-62.19 1623.78,-51.67"/>
<polygon fill="black" stroke="black" points="1627.25,-52.18 1625.88,-41.68 1620.4,-50.74 1627.25,-52.18"/>
</g>
<!-- N33 -->
<g id="node33" class="node">
<title>N33</title>
<polygon fill="none" stroke="black" points="1729,-83.5 1729,-119.5 1962,-119.5 1962,-83.5 1729,-83.5"/>
<text text-anchor="middle" x="1781" y="-97.8" font-family="Times,serif" font-size="14.00">NODE TYPE</text>
<polyline fill="none" stroke="black" points="1833,-83.5 1833,-119.5 "/>
<text text-anchor="middle" x="1897.5" y="-97.8" font-family="Times,serif" font-size="14.00">Type: TYPE INT</text>
</g>
<!-- N32&#45;&gt;N33 -->
<g id="edge26" class="edge">
<title>N32&#45;&gt;N33</title>
<path fill="none" stroke="black" d="M1845.5,-161.25C1845.5,-152.02 1845.5,-140.43 1845.5,-129.99"/>
<polygon fill="black" stroke="black" points="1849,-129.68 1845.5,-119.68 1842,-129.68 1849,-129.68"/>
</g>
<!-- N34 -->
<g id="node34" class="node">
<title>N34</title>
<polygon fill="none" stroke="black" points="1980.5,-83.5 1980.5,-119.5 2176.5,-119.5 2176.5,-83.5 1980.5,-83.5"/>
<text text-anchor="middle" x="2034" y="-97.8" font-family="Times,serif" font-size="14.00">NODE DECL</text>
<polyline fill="none" stroke="black" points="2087.5,-83.5 2087.5,-119.5 "/>
<text text-anchor="middle" x="2132" y="-97.8" font-family="Times,serif" font-size="14.00">Nb. ops: 2</text>
</g>
<!-- N32&#45;&gt;N34 -->
<g id="edge29" class="edge">
<title>N32&#45;&gt;N34</title>
<path fill="none" stroke="black" d="M1897.79,-161.44C1932.89,-149.99 1979.3,-134.86 2016.3,-122.79"/>
<polygon fill="black" stroke="black" points="2017.56,-126.06 2025.98,-119.63 2015.39,-119.4 2017.56,-126.06"/>
</g>
<!-- N35 -->
<g id="node35" class="node">
<title>N35</title>
<polygon fill="none" stroke="black" points="1825,-0.5 1825,-46.5 2068,-46.5 2068,-0.5 1825,-0.5"/>
<text text-anchor="middle" x="1882" y="-31.3" font-family="Times,serif" font-size="14.00">NODE IDENT</text>
<polyline fill="none" stroke="black" points="1939,-23.5 1939,-46.5 "/>
<text text-anchor="middle" x="2003.5" y="-31.3" font-family="Times,serif" font-size="14.00">Type: TYPE INT</text>
<polyline fill="none" stroke="black" points="1825,-23.5 2068,-23.5 "/>
<text text-anchor="middle" x="1867.5" y="-8.3" font-family="Times,serif" font-size="14.00">Global: 0</text>
<polyline fill="none" stroke="black" points="1910,-0.5 1910,-23.5 "/>
<text text-anchor="middle" x="1948" y="-8.3" font-family="Times,serif" font-size="14.00">Ident: c</text>
<polyline fill="none" stroke="black" points="1986,-0.5 1986,-23.5 "/>
<text text-anchor="middle" x="2027" y="-8.3" font-family="Times,serif" font-size="14.00">Offset: 0</text>
</g>
<!-- N34&#45;&gt;N35 -->
<g id="edge27" class="edge">
<title>N34&#45;&gt;N35</title>
<path fill="none" stroke="black" d="M2048.88,-83.44C2032.68,-74.12 2012.22,-62.34 1993.87,-51.77"/>
<polygon fill="black" stroke="black" points="1995.46,-48.65 1985.05,-46.7 1991.97,-54.72 1995.46,-48.65"/>
</g>
<!-- N36 -->
<g id="node36" class="node">
<title>N36</title>
<polygon fill="none" stroke="black" points="2086,-0.5 2086,-46.5 2335,-46.5 2335,-0.5 2086,-0.5"/>
<text text-anchor="middle" x="2146" y="-31.3" font-family="Times,serif" font-size="14.00">NODE INTVAL</text>
<polyline fill="none" stroke="black" points="2206,-23.5 2206,-46.5 "/>
<text text-anchor="middle" x="2270.5" y="-31.3" font-family="Times,serif" font-size="14.00">Type: TYPE INT</text>
<polyline fill="none" stroke="black" points="2086,-23.5 2335,-23.5 "/>
<text text-anchor="middle" x="2210.5" y="-8.3" font-family="Times,serif" font-size="14.00">Value: 0</text>
</g>
<!-- N34&#45;&gt;N36 -->
<g id="edge28" class="edge">
<title>N34&#45;&gt;N36</title>
<path fill="none" stroke="black" d="M2108.12,-83.44C2124.32,-74.12 2144.78,-62.34 2163.13,-51.77"/>
<polygon fill="black" stroke="black" points="2165.03,-54.72 2171.95,-46.7 2161.54,-48.65 2165.03,-54.72"/>
</g>
<!-- N38 -->
<g id="node38" class="node">
<title>N38</title>
<polygon fill="none" stroke="black" points="1706,-239.5 1706,-285.5 1949,-285.5 1949,-239.5 1706,-239.5"/>
<text text-anchor="middle" x="1763" y="-270.3" font-family="Times,serif" font-size="14.00">NODE IDENT</text>
<polyline fill="none" stroke="black" points="1820,-262.5 1820,-285.5 "/>
<text text-anchor="middle" x="1884.5" y="-270.3" font-family="Times,serif" font-size="14.00">Type: TYPE INT</text>
<polyline fill="none" stroke="black" points="1706,-262.5 1949,-262.5 "/>
<text text-anchor="middle" x="1748.5" y="-247.3" font-family="Times,serif" font-size="14.00">Global: 0</text>
<polyline fill="none" stroke="black" points="1791,-239.5 1791,-262.5 "/>
<text text-anchor="middle" x="1829" y="-247.3" font-family="Times,serif" font-size="14.00">Ident: c</text>
<polyline fill="none" stroke="black" points="1867,-239.5 1867,-262.5 "/>
<text text-anchor="middle" x="1908" y="-247.3" font-family="Times,serif" font-size="14.00">Offset: 0</text>
</g>
<!-- N37&#45;&gt;N38 -->
<g id="edge33" class="edge">
<title>N37&#45;&gt;N38</title>
<path fill="none" stroke="black" d="M1836.78,-322.25C1835.53,-314.36 1834.01,-304.75 1832.57,-295.6"/>
<polygon fill="black" stroke="black" points="1836,-294.92 1830.99,-285.59 1829.09,-296.01 1836,-294.92"/>
</g>
<!-- N39 -->
<g id="node39" class="node">
<title>N39</title>
<polygon fill="none" stroke="black" points="1967.5,-244.5 1967.5,-280.5 2291.5,-280.5 2291.5,-244.5 1967.5,-244.5"/>
<text text-anchor="middle" x="2020.5" y="-258.8" font-family="Times,serif" font-size="14.00">NODE PLUS</text>
<polyline fill="none" stroke="black" points="2073.5,-244.5 2073.5,-280.5 "/>
<text text-anchor="middle" x="2138" y="-258.8" font-family="Times,serif" font-size="14.00">Type: TYPE INT</text>
<polyline fill="none" stroke="black" points="2202.5,-244.5 2202.5,-280.5 "/>
<text text-anchor="middle" x="2247" y="-258.8" font-family="Times,serif" font-size="14.00">Nb. ops: 2</text>
</g>
<!-- N37&#45;&gt;N39 -->
<g id="edge36" class="edge">
<title>N37&#45;&gt;N39</title>
<path fill="none" stroke="black" d="M1904.58,-322.44C1949.09,-310.78 2008.22,-295.28 2054.67,-283.11"/>
<polygon fill="black" stroke="black" points="2055.6,-286.49 2064.39,-280.56 2053.82,-279.71 2055.6,-286.49"/>
</g>
<!-- N40 -->
<g id="node40" class="node">
<title>N40</title>
<polygon fill="none" stroke="black" points="1975,-156.5 1975,-202.5 2218,-202.5 2218,-156.5 1975,-156.5"/>
<text text-anchor="middle" x="2032" y="-187.3" font-family="Times,serif" font-size="14.00">NODE IDENT</text>
<polyline fill="none" stroke="black" points="2089,-179.5 2089,-202.5 "/>
<text text-anchor="middle" x="2153.5" y="-187.3" font-family="Times,serif" font-size="14.00">Type: TYPE INT</text>
<polyline fill="none" stroke="black" points="1975,-179.5 2218,-179.5 "/>
<text text-anchor="middle" x="2017" y="-164.3" font-family="Times,serif" font-size="14.00">Global: 0</text>
<polyline fill="none" stroke="black" points="2059,-156.5 2059,-179.5 "/>
<text text-anchor="middle" x="2097.5" y="-164.3" font-family="Times,serif" font-size="14.00">Ident: b</text>
<polyline fill="none" stroke="black" points="2136,-156.5 2136,-179.5 "/>
<text text-anchor="middle" x="2177" y="-164.3" font-family="Times,serif" font-size="14.00">Offset: 0</text>
</g>
<!-- N39&#45;&gt;N40 -->
<g id="edge34" class="edge">
<title>N39&#45;&gt;N40</title>
<path fill="none" stroke="black" d="M2122.5,-244.32C2118.67,-234.91 2113.8,-222.95 2109.31,-211.94"/>
<polygon fill="black" stroke="black" points="2112.51,-210.53 2105.5,-202.59 2106.03,-213.17 2112.51,-210.53"/>
</g>
<!-- N41 -->
<g id="node41" class="node">
<title>N41</title>
<polygon fill="none" stroke="black" points="2236,-156.5 2236,-202.5 2479,-202.5 2479,-156.5 2236,-156.5"/>
<text text-anchor="middle" x="2293" y="-187.3" font-family="Times,serif" font-size="14.00">NODE IDENT</text>
<polyline fill="none" stroke="black" points="2350,-179.5 2350,-202.5 "/>
<text text-anchor="middle" x="2414.5" y="-187.3" font-family="Times,serif" font-size="14.00">Type: TYPE INT</text>
<polyline fill="none" stroke="black" points="2236,-179.5 2479,-179.5 "/>
<text text-anchor="middle" x="2278.5" y="-164.3" font-family="Times,serif" font-size="14.00">Global: 1</text>
<polyline fill="none" stroke="black" points="2321,-156.5 2321,-179.5 "/>
<text text-anchor="middle" x="2359" y="-164.3" font-family="Times,serif" font-size="14.00">Ident: a</text>
<polyline fill="none" stroke="black" points="2397,-156.5 2397,-179.5 "/>
<text text-anchor="middle" x="2438" y="-164.3" font-family="Times,serif" font-size="14.00">Offset: 0</text>
</g>
<!-- N39&#45;&gt;N41 -->
<g id="edge35" class="edge">
<title>N39&#45;&gt;N41</title>
<path fill="none" stroke="black" d="M2177.57,-244.42C2208.86,-233.31 2250.25,-218.6 2285.44,-206.1"/>
<polygon fill="black" stroke="black" points="2286.93,-209.28 2295.18,-202.64 2284.59,-202.69 2286.93,-209.28"/>
</g>
</g>
</svg>
