<?xml version="1.0" encoding="UTF-8" standalone="no"?>
<!DOCTYPE svg PUBLIC "-//W3C//DTD SVG 1.1//EN"
 "http://www.w3.org/Graphics/SVG/1.1/DTD/svg11.dtd">
<!-- Generated by graphviz version 2.43.0 (0)
 -->
<!-- Title: global_vars Pages: 1 -->
<svg width="2571pt" height="689pt"
 viewBox="0.00 0.00 2571.00 689.00" xmlns="http://www.w3.org/2000/svg" xmlns:xlink="http://www.w3.org/1999/xlink">
<g id="graph0" class="graph" transform="scale(1 1) rotate(0) translate(4 685)">
<title>global_vars</title>
<polygon fill="white" stroke="transparent" points="-4,4 -4,-685 2567,-685 2567,4 -4,4"/>
<!-- N1 -->
<g id="node1" class="node">
<title>N1</title>
<polygon fill="none" stroke="black" points="879.5,-644.5 879.5,-680.5 1111.5,-680.5 1111.5,-644.5 879.5,-644.5"/>
<text text-anchor="middle" x="951" y="-658.8" font-family="Times,serif" font-size="14.00">NODE PROGRAM</text>
<polyline fill="none" stroke="black" points="1022.5,-644.5 1022.5,-680.5 "/>
<text text-anchor="middle" x="1067" y="-658.8" font-family="Times,serif" font-size="14.00">Nb. ops: 2</text>
</g>
<!-- N2 -->
<g id="node2" class="node">
<title>N2</title>
<polygon fill="none" stroke="black" points="785,-566.5 785,-602.5 884,-602.5 884,-566.5 785,-566.5"/>
<text text-anchor="middle" x="834.5" y="-580.8" font-family="Times,serif" font-size="14.00">NODE LIST</text>
</g>
<!-- N1&#45;&gt;N2 -->
<g id="edge15" class="edge">
<title>N1&#45;&gt;N2</title>
<path fill="none" stroke="black" d="M959.37,-644.44C935.94,-633.38 905.22,-618.88 880.11,-607.03"/>
<polygon fill="black" stroke="black" points="881.33,-603.73 870.79,-602.63 878.34,-610.06 881.33,-603.73"/>
</g>
<!-- N17 -->
<g id="node17" class="node">
<title>N17</title>
<polygon fill="none" stroke="black" points="1193,-561.5 1193,-607.5 1392,-607.5 1392,-561.5 1193,-561.5"/>
<text text-anchor="middle" x="1248" y="-592.3" font-family="Times,serif" font-size="14.00">NODE FUNC</text>
<polyline fill="none" stroke="black" points="1303,-584.5 1303,-607.5 "/>
<text text-anchor="middle" x="1347.5" y="-592.3" font-family="Times,serif" font-size="14.00">Nb. ops: 3</text>
<polyline fill="none" stroke="black" points="1193,-584.5 1392,-584.5 "/>
<text text-anchor="middle" x="1292.5" y="-569.3" font-family="Times,serif" font-size="14.00">offset: 0</text>
</g>
<!-- N1&#45;&gt;N17 -->
<g id="edge40" class="edge">
<title>N1&#45;&gt;N17</title>
<path fill="none" stroke="black" d="M1062.15,-644.44C1101.74,-634.31 1152.62,-621.29 1196.49,-610.07"/>
<polygon fill="black" stroke="black" points="1197.49,-613.42 1206.31,-607.55 1195.76,-606.64 1197.49,-613.42"/>
</g>
<!-- N3 -->
<g id="node3" class="node">
<title>N3</title>
<polygon fill="none" stroke="black" points="532,-483.5 532,-519.5 631,-519.5 631,-483.5 532,-483.5"/>
<text text-anchor="middle" x="581.5" y="-497.8" font-family="Times,serif" font-size="14.00">NODE LIST</text>
</g>
<!-- N2&#45;&gt;N3 -->
<g id="edge11" class="edge">
<title>N2&#45;&gt;N3</title>
<path fill="none" stroke="black" d="M784.81,-569.04C746.13,-557.6 691.19,-540.95 643.5,-525 641.59,-524.36 639.64,-523.7 637.68,-523.03"/>
<polygon fill="black" stroke="black" points="638.39,-519.57 627.79,-519.59 636.09,-526.18 638.39,-519.57"/>
</g>
<!-- N14 -->
<g id="node14" class="node">
<title>N14</title>
<polygon fill="none" stroke="black" points="653,-483.5 653,-519.5 1016,-519.5 1016,-483.5 653,-483.5"/>
<text text-anchor="middle" x="715.5" y="-497.8" font-family="Times,serif" font-size="14.00">NODE AFFECT</text>
<polyline fill="none" stroke="black" points="778,-483.5 778,-519.5 "/>
<text text-anchor="middle" x="852.5" y="-497.8" font-family="Times,serif" font-size="14.00">Type: TYPE NONE</text>
<polyline fill="none" stroke="black" points="927,-483.5 927,-519.5 "/>
<text text-anchor="middle" x="971.5" y="-497.8" font-family="Times,serif" font-size="14.00">Nb. ops: 2</text>
</g>
<!-- N2&#45;&gt;N14 -->
<g id="edge14" class="edge">
<title>N2&#45;&gt;N14</title>
<path fill="none" stroke="black" d="M834.5,-566.32C834.5,-555.69 834.5,-541.81 834.5,-529.7"/>
<polygon fill="black" stroke="black" points="838,-529.65 834.5,-519.65 831,-529.65 838,-529.65"/>
</g>
<!-- N4 -->
<g id="node4" class="node">
<title>N4</title>
<polygon fill="none" stroke="black" points="246.5,-400.5 246.5,-436.5 452.5,-436.5 452.5,-400.5 246.5,-400.5"/>
<text text-anchor="middle" x="305" y="-414.8" font-family="Times,serif" font-size="14.00">NODE DECLS</text>
<polyline fill="none" stroke="black" points="363.5,-400.5 363.5,-436.5 "/>
<text text-anchor="middle" x="408" y="-414.8" font-family="Times,serif" font-size="14.00">Nb. ops: 2</text>
</g>
<!-- N3&#45;&gt;N4 -->
<g id="edge5" class="edge">
<title>N3&#45;&gt;N4</title>
<path fill="none" stroke="black" d="M532.58,-483.42C496.18,-470.71 446.36,-453.32 407.88,-439.88"/>
<polygon fill="black" stroke="black" points="408.95,-436.55 398.35,-436.56 406.64,-443.16 408.95,-436.55"/>
</g>
<!-- N9 -->
<g id="node9" class="node">
<title>N9</title>
<polygon fill="none" stroke="black" points="478.5,-400.5 478.5,-436.5 684.5,-436.5 684.5,-400.5 478.5,-400.5"/>
<text text-anchor="middle" x="537" y="-414.8" font-family="Times,serif" font-size="14.00">NODE DECLS</text>
<polyline fill="none" stroke="black" points="595.5,-400.5 595.5,-436.5 "/>
<text text-anchor="middle" x="640" y="-414.8" font-family="Times,serif" font-size="14.00">Nb. ops: 2</text>
</g>
<!-- N3&#45;&gt;N9 -->
<g id="edge10" class="edge">
<title>N3&#45;&gt;N9</title>
<path fill="none" stroke="black" d="M581.5,-483.32C581.5,-472.69 581.5,-458.81 581.5,-446.7"/>
<polygon fill="black" stroke="black" points="585,-446.65 581.5,-436.65 578,-446.65 585,-446.65"/>
</g>
<!-- N5 -->
<g id="node5" class="node">
<title>N5</title>
<polygon fill="none" stroke="black" points="0,-322.5 0,-358.5 233,-358.5 233,-322.5 0,-322.5"/>
<text text-anchor="middle" x="52" y="-336.8" font-family="Times,serif" font-size="14.00">NODE TYPE</text>
<polyline fill="none" stroke="black" points="104,-322.5 104,-358.5 "/>
<text text-anchor="middle" x="168.5" y="-336.8" font-family="Times,serif" font-size="14.00">Type: TYPE INT</text>
</g>
<!-- N4&#45;&gt;N5 -->
<g id="edge1" class="edge">
<title>N4&#45;&gt;N5</title>
<path fill="none" stroke="black" d="M297.21,-400.44C262.11,-388.99 215.7,-373.86 178.7,-361.79"/>
<polygon fill="black" stroke="black" points="179.61,-358.4 169.02,-358.63 177.44,-365.06 179.61,-358.4"/>
</g>
<!-- N6 -->
<g id="node6" class="node">
<title>N6</title>
<polygon fill="none" stroke="black" points="251.5,-322.5 251.5,-358.5 447.5,-358.5 447.5,-322.5 251.5,-322.5"/>
<text text-anchor="middle" x="305" y="-336.8" font-family="Times,serif" font-size="14.00">NODE DECL</text>
<polyline fill="none" stroke="black" points="358.5,-322.5 358.5,-358.5 "/>
<text text-anchor="middle" x="403" y="-336.8" font-family="Times,serif" font-size="14.00">Nb. ops: 2</text>
</g>
<!-- N4&#45;&gt;N6 -->
<g id="edge4" class="edge">
<title>N4&#45;&gt;N6</title>
<path fill="none" stroke="black" d="M349.5,-400.25C349.5,-391.02 349.5,-379.43 349.5,-368.99"/>
<polygon fill="black" stroke="black" points="353,-368.68 349.5,-358.68 346,-368.68 353,-368.68"/>
</g>
<!-- N7 -->
<g id="node7" class="node">
<title>N7</title>
<polygon fill="none" stroke="black" points="129,-239.5 129,-285.5 392,-285.5 392,-239.5 129,-239.5"/>
<text text-anchor="middle" x="186" y="-270.3" font-family="Times,serif" font-size="14.00">NODE IDENT</text>
<polyline fill="none" stroke="black" points="243,-262.5 243,-285.5 "/>
<text text-anchor="middle" x="317.5" y="-270.3" font-family="Times,serif" font-size="14.00">Type: TYPE NONE</text>
<polyline fill="none" stroke="black" points="129,-262.5 392,-262.5 "/>
<text text-anchor="middle" x="174.5" y="-247.3" font-family="Times,serif" font-size="14.00">Global: 0</text>
<polyline fill="none" stroke="black" points="220,-239.5 220,-262.5 "/>
<text text-anchor="middle" x="261.5" y="-247.3" font-family="Times,serif" font-size="14.00">Ident: a</text>
<polyline fill="none" stroke="black" points="303,-239.5 303,-262.5 "/>
<text text-anchor="middle" x="347.5" y="-247.3" font-family="Times,serif" font-size="14.00">Offset: 0</text>
</g>
<!-- N6&#45;&gt;N7 -->
<g id="edge2" class="edge">
<title>N6&#45;&gt;N7</title>
<path fill="none" stroke="black" d="M329.3,-322.25C318.87,-313.34 305.87,-302.24 293.98,-292.09"/>
<polygon fill="black" stroke="black" points="296.25,-289.42 286.37,-285.59 291.7,-294.75 296.25,-289.42"/>
</g>
<!-- N8 -->
<g id="node8" class="node">
<title>N8</title>
<polygon fill="none" stroke="black" points="410,-244.5 410,-280.5 469,-280.5 469,-244.5 410,-244.5"/>
<text text-anchor="middle" x="439.5" y="-258.8" font-family="Times,serif" font-size="14.00">NULL</text>
</g>
<!-- N6&#45;&gt;N8 -->
<g id="edge3" class="edge">
<title>N6&#45;&gt;N8</title>
<path fill="none" stroke="black" d="M369.92,-322.25C382.12,-311.95 397.79,-298.72 411.17,-287.42"/>
<polygon fill="black" stroke="black" points="413.78,-289.8 419.16,-280.68 409.26,-284.46 413.78,-289.8"/>
</g>
<!-- N10 -->
<g id="node10" class="node">
<title>N10</title>
<polygon fill="none" stroke="black" points="465,-322.5 465,-358.5 698,-358.5 698,-322.5 465,-322.5"/>
<text text-anchor="middle" x="517" y="-336.8" font-family="Times,serif" font-size="14.00">NODE TYPE</text>
<polyline fill="none" stroke="black" points="569,-322.5 569,-358.5 "/>
<text text-anchor="middle" x="633.5" y="-336.8" font-family="Times,serif" font-size="14.00">Type: TYPE INT</text>
</g>
<!-- N9&#45;&gt;N10 -->
<g id="edge6" class="edge">
<title>N9&#45;&gt;N10</title>
<path fill="none" stroke="black" d="M581.5,-400.25C581.5,-391.02 581.5,-379.43 581.5,-368.99"/>
<polygon fill="black" stroke="black" points="585,-368.68 581.5,-358.68 578,-368.68 585,-368.68"/>
</g>
<!-- N11 -->
<g id="node11" class="node">
<title>N11</title>
<polygon fill="none" stroke="black" points="716.5,-322.5 716.5,-358.5 912.5,-358.5 912.5,-322.5 716.5,-322.5"/>
<text text-anchor="middle" x="770" y="-336.8" font-family="Times,serif" font-size="14.00">NODE DECL</text>
<polyline fill="none" stroke="black" points="823.5,-322.5 823.5,-358.5 "/>
<text text-anchor="middle" x="868" y="-336.8" font-family="Times,serif" font-size="14.00">Nb. ops: 2</text>
</g>
<!-- N9&#45;&gt;N11 -->
<g id="edge9" class="edge">
<title>N9&#45;&gt;N11</title>
<path fill="none" stroke="black" d="M633.79,-400.44C668.89,-388.99 715.3,-373.86 752.3,-361.79"/>
<polygon fill="black" stroke="black" points="753.56,-365.06 761.98,-358.63 751.39,-358.4 753.56,-365.06"/>
</g>
<!-- N12 -->
<g id="node12" class="node">
<title>N12</title>
<polygon fill="none" stroke="black" points="630,-239.5 630,-285.5 893,-285.5 893,-239.5 630,-239.5"/>
<text text-anchor="middle" x="687" y="-270.3" font-family="Times,serif" font-size="14.00">NODE IDENT</text>
<polyline fill="none" stroke="black" points="744,-262.5 744,-285.5 "/>
<text text-anchor="middle" x="818.5" y="-270.3" font-family="Times,serif" font-size="14.00">Type: TYPE NONE</text>
<polyline fill="none" stroke="black" points="630,-262.5 893,-262.5 "/>
<text text-anchor="middle" x="675.5" y="-247.3" font-family="Times,serif" font-size="14.00">Global: 0</text>
<polyline fill="none" stroke="black" points="721,-239.5 721,-262.5 "/>
<text text-anchor="middle" x="762.5" y="-247.3" font-family="Times,serif" font-size="14.00">Ident: x</text>
<polyline fill="none" stroke="black" points="804,-239.5 804,-262.5 "/>
<text text-anchor="middle" x="848.5" y="-247.3" font-family="Times,serif" font-size="14.00">Offset: 0</text>
</g>
<!-- N11&#45;&gt;N12 -->
<g id="edge7" class="edge">
<title>N11&#45;&gt;N12</title>
<path fill="none" stroke="black" d="M802.47,-322.25C796.62,-313.85 789.4,-303.5 782.66,-293.84"/>
<polygon fill="black" stroke="black" points="785.5,-291.79 776.91,-285.59 779.75,-295.8 785.5,-291.79"/>
</g>
<!-- N13 -->
<g id="node13" class="node">
<title>N13</title>
<polygon fill="none" stroke="black" points="911,-239.5 911,-285.5 1160,-285.5 1160,-239.5 911,-239.5"/>
<text text-anchor="middle" x="971" y="-270.3" font-family="Times,serif" font-size="14.00">NODE INTVAL</text>
<polyline fill="none" stroke="black" points="1031,-262.5 1031,-285.5 "/>
<text text-anchor="middle" x="1095.5" y="-270.3" font-family="Times,serif" font-size="14.00">Type: TYPE INT</text>
<polyline fill="none" stroke="black" points="911,-262.5 1160,-262.5 "/>
<text text-anchor="middle" x="1035.5" y="-247.3" font-family="Times,serif" font-size="14.00">Value: 4</text>
</g>
<!-- N11&#45;&gt;N13 -->
<g id="edge8" class="edge">
<title>N11&#45;&gt;N13</title>
<path fill="none" stroke="black" d="M864.1,-322.44C892.81,-312.57 929.51,-299.95 961.58,-288.92"/>
<polygon fill="black" stroke="black" points="963.05,-292.12 971.37,-285.55 960.77,-285.5 963.05,-292.12"/>
</g>
<!-- N15 -->
<g id="node15" class="node">
<title>N15</title>
<polygon fill="none" stroke="black" points="703,-395.5 703,-441.5 966,-441.5 966,-395.5 703,-395.5"/>
<text text-anchor="middle" x="760" y="-426.3" font-family="Times,serif" font-size="14.00">NODE IDENT</text>
<polyline fill="none" stroke="black" points="817,-418.5 817,-441.5 "/>
<text text-anchor="middle" x="891.5" y="-426.3" font-family="Times,serif" font-size="14.00">Type: TYPE NONE</text>
<polyline fill="none" stroke="black" points="703,-418.5 966,-418.5 "/>
<text text-anchor="middle" x="748.5" y="-403.3" font-family="Times,serif" font-size="14.00">Global: 0</text>
<polyline fill="none" stroke="black" points="794,-395.5 794,-418.5 "/>
<text text-anchor="middle" x="835.5" y="-403.3" font-family="Times,serif" font-size="14.00">Ident: a</text>
<polyline fill="none" stroke="black" points="877,-395.5 877,-418.5 "/>
<text text-anchor="middle" x="921.5" y="-403.3" font-family="Times,serif" font-size="14.00">Offset: 0</text>
</g>
<!-- N14&#45;&gt;N15 -->
<g id="edge12" class="edge">
<title>N14&#45;&gt;N15</title>
<path fill="none" stroke="black" d="M834.5,-483.32C834.5,-474.1 834.5,-462.43 834.5,-451.61"/>
<polygon fill="black" stroke="black" points="838,-451.59 834.5,-441.59 831,-451.59 838,-451.59"/>
</g>
<!-- N16 -->
<g id="node16" class="node">
<title>N16</title>
<polygon fill="none" stroke="black" points="984,-395.5 984,-441.5 1233,-441.5 1233,-395.5 984,-395.5"/>
<text text-anchor="middle" x="1044" y="-426.3" font-family="Times,serif" font-size="14.00">NODE INTVAL</text>
<polyline fill="none" stroke="black" points="1104,-418.5 1104,-441.5 "/>
<text text-anchor="middle" x="1168.5" y="-426.3" font-family="Times,serif" font-size="14.00">Type: TYPE INT</text>
<polyline fill="none" stroke="black" points="984,-418.5 1233,-418.5 "/>
<text text-anchor="middle" x="1108.5" y="-403.3" font-family="Times,serif" font-size="14.00">Value: 0</text>
</g>
<!-- N14&#45;&gt;N16 -->
<g id="edge13" class="edge">
<title>N14&#45;&gt;N16</title>
<path fill="none" stroke="black" d="M892.27,-483.42C930.51,-472.12 981.29,-457.11 1024.03,-444.47"/>
<polygon fill="black" stroke="black" points="1025.27,-447.76 1033.86,-441.56 1023.28,-441.04 1025.27,-447.76"/>
</g>
<!-- N18 -->
<g id="node18" class="node">
<title>N18</title>
<polygon fill="none" stroke="black" points="1034.5,-483.5 1034.5,-519.5 1278.5,-519.5 1278.5,-483.5 1034.5,-483.5"/>
<text text-anchor="middle" x="1086.5" y="-497.8" font-family="Times,serif" font-size="14.00">NODE TYPE</text>
<polyline fill="none" stroke="black" points="1138.5,-483.5 1138.5,-519.5 "/>
<text text-anchor="middle" x="1208.5" y="-497.8" font-family="Times,serif" font-size="14.00">Type: TYPE VOID</text>
</g>
<!-- N17&#45;&gt;N18 -->
<g id="edge16" class="edge">
<title>N17&#45;&gt;N18</title>
<path fill="none" stroke="black" d="M1255.34,-561.37C1236.33,-550.04 1213.24,-536.29 1194.16,-524.93"/>
<polygon fill="black" stroke="black" points="1195.81,-521.84 1185.43,-519.73 1192.23,-527.85 1195.81,-521.84"/>
</g>
<!-- N19 -->
<g id="node19" class="node">
<title>N19</title>
<polygon fill="none" stroke="black" points="1297,-478.5 1297,-524.5 1560,-524.5 1560,-478.5 1297,-478.5"/>
<text text-anchor="middle" x="1354" y="-509.3" font-family="Times,serif" font-size="14.00">NODE IDENT</text>
<polyline fill="none" stroke="black" points="1411,-501.5 1411,-524.5 "/>
<text text-anchor="middle" x="1485.5" y="-509.3" font-family="Times,serif" font-size="14.00">Type: TYPE NONE</text>
<polyline fill="none" stroke="black" points="1297,-501.5 1560,-501.5 "/>
<text text-anchor="middle" x="1338" y="-486.3" font-family="Times,serif" font-size="14.00">Global: 0</text>
<polyline fill="none" stroke="black" points="1379,-478.5 1379,-501.5 "/>
<text text-anchor="middle" x="1429.5" y="-486.3" font-family="Times,serif" font-size="14.00">Ident: main</text>
<polyline fill="none" stroke="black" points="1480,-478.5 1480,-501.5 "/>
<text text-anchor="middle" x="1520" y="-486.3" font-family="Times,serif" font-size="14.00">Offset: 0</text>
</g>
<!-- N17&#45;&gt;N19 -->
<g id="edge17" class="edge">
<title>N17&#45;&gt;N19</title>
<path fill="none" stroke="black" d="M1329.66,-561.37C1346,-551.63 1365.36,-540.11 1382.59,-529.84"/>
<polygon fill="black" stroke="black" points="1384.58,-532.73 1391.38,-524.61 1381,-526.72 1384.58,-532.73"/>
</g>
<!-- N20 -->
<g id="node20" class="node">
<title>N20</title>
<polygon fill="none" stroke="black" points="1578,-483.5 1578,-519.5 1785,-519.5 1785,-483.5 1578,-483.5"/>
<text text-anchor="middle" x="1637" y="-497.8" font-family="Times,serif" font-size="14.00">NODE BLOCK</text>
<polyline fill="none" stroke="black" points="1696,-483.5 1696,-519.5 "/>
<text text-anchor="middle" x="1740.5" y="-497.8" font-family="Times,serif" font-size="14.00">Nb. ops: 1</text>
</g>
<!-- N17&#45;&gt;N20 -->
<g id="edge39" class="edge">
<title>N17&#45;&gt;N20</title>
<path fill="none" stroke="black" d="M1392.17,-562.75C1453.03,-550.07 1530.29,-533.99 1589.66,-521.62"/>
<polygon fill="black" stroke="black" points="1590.7,-524.98 1599.78,-519.52 1589.28,-518.13 1590.7,-524.98"/>
</g>
<!-- N21 -->
<g id="node21" class="node">
<title>N21</title>
<polygon fill="none" stroke="black" points="1632,-400.5 1632,-436.5 1731,-436.5 1731,-400.5 1632,-400.5"/>
<text text-anchor="middle" x="1681.5" y="-414.8" font-family="Times,serif" font-size="14.00">NODE LIST</text>
</g>
<!-- N20&#45;&gt;N21 -->
<g id="edge38" class="edge">
<title>N20&#45;&gt;N21</title>
<path fill="none" stroke="black" d="M1681.5,-483.32C1681.5,-472.69 1681.5,-458.81 1681.5,-446.7"/>
<polygon fill="black" stroke="black" points="1685,-446.65 1681.5,-436.65 1678,-446.65 1685,-446.65"/>
</g>
<!-- N22 -->
<g id="node22" class="node">
<title>N22</title>
<polygon fill="none" stroke="black" points="1585,-322.5 1585,-358.5 1684,-358.5 1684,-322.5 1585,-322.5"/>
<text text-anchor="middle" x="1634.5" y="-336.8" font-family="Times,serif" font-size="14.00">NODE LIST</text>
</g>
<!-- N21&#45;&gt;N22 -->
<g id="edge32" class="edge">
<title>N21&#45;&gt;N22</title>
<path fill="none" stroke="black" d="M1670.83,-400.25C1664.83,-390.54 1657.2,-378.21 1650.49,-367.36"/>
<polygon fill="black" stroke="black" points="1653.36,-365.34 1645.12,-358.68 1647.41,-369.02 1653.36,-365.34"/>
</g>
<!-- N37 -->
<g id="node37" class="node">
<title>N37</title>
<polygon fill="none" stroke="black" points="1702,-322.5 1702,-358.5 2065,-358.5 2065,-322.5 1702,-322.5"/>
<text text-anchor="middle" x="1764.5" y="-336.8" font-family="Times,serif" font-size="14.00">NODE AFFECT</text>
<polyline fill="none" stroke="black" points="1827,-322.5 1827,-358.5 "/>
<text text-anchor="middle" x="1901.5" y="-336.8" font-family="Times,serif" font-size="14.00">Type: TYPE NONE</text>
<polyline fill="none" stroke="black" points="1976,-322.5 1976,-358.5 "/>
<text text-anchor="middle" x="2020.5" y="-336.8" font-family="Times,serif" font-size="14.00">Nb. ops: 2</text>
</g>
<!-- N21&#45;&gt;N37 -->
<g id="edge37" class="edge">
<title>N21&#45;&gt;N37</title>
<path fill="none" stroke="black" d="M1726.83,-400.44C1756.88,-389.14 1796.48,-374.24 1828.35,-362.25"/>
<polygon fill="black" stroke="black" points="1829.84,-365.43 1837.97,-358.63 1827.38,-358.88 1829.84,-365.43"/>
</g>
<!-- N23 -->
<g id="node23" class="node">
<title>N23</title>
<polygon fill="none" stroke="black" points="1213,-244.5 1213,-280.5 1576,-280.5 1576,-244.5 1213,-244.5"/>
<text text-anchor="middle" x="1275.5" y="-258.8" font-family="Times,serif" font-size="14.00">NODE AFFECT</text>
<polyline fill="none" stroke="black" points="1338,-244.5 1338,-280.5 "/>
<text text-anchor="middle" x="1412.5" y="-258.8" font-family="Times,serif" font-size="14.00">Type: TYPE NONE</text>
<polyline fill="none" stroke="black" points="1487,-244.5 1487,-280.5 "/>
<text text-anchor="middle" x="1531.5" y="-258.8" font-family="Times,serif" font-size="14.00">Nb. ops: 2</text>
</g>
<!-- N22&#45;&gt;N23 -->
<g id="edge20" class="edge">
<title>N22&#45;&gt;N23</title>
<path fill="none" stroke="black" d="M1584.77,-323.75C1547.99,-312.1 1497.6,-296.15 1457.92,-283.58"/>
<polygon fill="black" stroke="black" points="1458.93,-280.23 1448.34,-280.55 1456.81,-286.9 1458.93,-280.23"/>
</g>
<!-- N26 -->
<g id="node26" class="node">
<title>N26</title>
<polygon fill="none" stroke="black" points="1598,-244.5 1598,-280.5 1697,-280.5 1697,-244.5 1598,-244.5"/>
<text text-anchor="middle" x="1647.5" y="-258.8" font-family="Times,serif" font-size="14.00">NODE LIST</text>
</g>
<!-- N22&#45;&gt;N26 -->
<g id="edge31" class="edge">
<title>N22&#45;&gt;N26</title>
<path fill="none" stroke="black" d="M1637.45,-322.25C1639.05,-312.93 1641.05,-301.19 1642.85,-290.67"/>
<polygon fill="black" stroke="black" points="1646.33,-291.12 1644.56,-280.68 1639.43,-289.94 1646.33,-291.12"/>
</g>
<!-- N24 -->
<g id="node24" class="node">
<title>N24</title>
<polygon fill="none" stroke="black" points="982,-156.5 982,-202.5 1245,-202.5 1245,-156.5 982,-156.5"/>
<text text-anchor="middle" x="1039" y="-187.3" font-family="Times,serif" font-size="14.00">NODE IDENT</text>
<polyline fill="none" stroke="black" points="1096,-179.5 1096,-202.5 "/>
<text text-anchor="middle" x="1170.5" y="-187.3" font-family="Times,serif" font-size="14.00">Type: TYPE NONE</text>
<polyline fill="none" stroke="black" points="982,-179.5 1245,-179.5 "/>
<text text-anchor="middle" x="1027.5" y="-164.3" font-family="Times,serif" font-size="14.00">Global: 0</text>
<polyline fill="none" stroke="black" points="1073,-156.5 1073,-179.5 "/>
<text text-anchor="middle" x="1114.5" y="-164.3" font-family="Times,serif" font-size="14.00">Ident: x</text>
<polyline fill="none" stroke="black" points="1156,-156.5 1156,-179.5 "/>
<text text-anchor="middle" x="1200.5" y="-164.3" font-family="Times,serif" font-size="14.00">Offset: 0</text>
</g>
<!-- N23&#45;&gt;N24 -->
<g id="edge18" class="edge">
<title>N23&#45;&gt;N24</title>
<path fill="none" stroke="black" d="M1335.25,-244.42C1295.95,-233.09 1243.74,-218.04 1199.85,-205.39"/>
<polygon fill="black" stroke="black" points="1200.62,-201.97 1190.04,-202.56 1198.68,-208.7 1200.62,-201.97"/>
</g>
<!-- N25 -->
<g id="node25" class="node">
<title>N25</title>
<polygon fill="none" stroke="black" points="1263,-156.5 1263,-202.5 1526,-202.5 1526,-156.5 1263,-156.5"/>
<text text-anchor="middle" x="1320" y="-187.3" font-family="Times,serif" font-size="14.00">NODE IDENT</text>
<polyline fill="none" stroke="black" points="1377,-179.5 1377,-202.5 "/>
<text text-anchor="middle" x="1451.5" y="-187.3" font-family="Times,serif" font-size="14.00">Type: TYPE NONE</text>
<polyline fill="none" stroke="black" points="1263,-179.5 1526,-179.5 "/>
<text text-anchor="middle" x="1308.5" y="-164.3" font-family="Times,serif" font-size="14.00">Global: 0</text>
<polyline fill="none" stroke="black" points="1354,-156.5 1354,-179.5 "/>
<text text-anchor="middle" x="1395.5" y="-164.3" font-family="Times,serif" font-size="14.00">Ident: a</text>
<polyline fill="none" stroke="black" points="1437,-156.5 1437,-179.5 "/>
<text text-anchor="middle" x="1481.5" y="-164.3" font-family="Times,serif" font-size="14.00">Offset: 0</text>
</g>
<!-- N23&#45;&gt;N25 -->
<g id="edge19" class="edge">
<title>N23&#45;&gt;N25</title>
<path fill="none" stroke="black" d="M1394.5,-244.32C1394.5,-235.1 1394.5,-223.43 1394.5,-212.61"/>
<polygon fill="black" stroke="black" points="1398,-212.59 1394.5,-202.59 1391,-212.59 1398,-212.59"/>
</g>
<!-- N27 -->
<g id="node27" class="node">
<title>N27</title>
<polygon fill="none" stroke="black" points="1544.5,-161.5 1544.5,-197.5 1750.5,-197.5 1750.5,-161.5 1544.5,-161.5"/>
<text text-anchor="middle" x="1603" y="-175.8" font-family="Times,serif" font-size="14.00">NODE DECLS</text>
<polyline fill="none" stroke="black" points="1661.5,-161.5 1661.5,-197.5 "/>
<text text-anchor="middle" x="1706" y="-175.8" font-family="Times,serif" font-size="14.00">Nb. ops: 2</text>
</g>
<!-- N26&#45;&gt;N27 -->
<g id="edge25" class="edge">
<title>N26&#45;&gt;N27</title>
<path fill="none" stroke="black" d="M1647.5,-244.32C1647.5,-233.69 1647.5,-219.81 1647.5,-207.7"/>
<polygon fill="black" stroke="black" points="1651,-207.65 1647.5,-197.65 1644,-207.65 1651,-207.65"/>
</g>
<!-- N32 -->
<g id="node32" class="node">
<title>N32</title>
<polygon fill="none" stroke="black" points="1776.5,-161.5 1776.5,-197.5 1982.5,-197.5 1982.5,-161.5 1776.5,-161.5"/>
<text text-anchor="middle" x="1835" y="-175.8" font-family="Times,serif" font-size="14.00">NODE DECLS</text>
<polyline fill="none" stroke="black" points="1893.5,-161.5 1893.5,-197.5 "/>
<text text-anchor="middle" x="1938" y="-175.8" font-family="Times,serif" font-size="14.00">Nb. ops: 2</text>
</g>
<!-- N26&#45;&gt;N32 -->
<g id="edge30" class="edge">
<title>N26&#45;&gt;N32</title>
<path fill="none" stroke="black" d="M1696.42,-244.42C1732.82,-231.71 1782.64,-214.32 1821.12,-200.88"/>
<polygon fill="black" stroke="black" points="1822.36,-204.16 1830.65,-197.56 1820.05,-197.55 1822.36,-204.16"/>
</g>
<!-- N28 -->
<g id="node28" class="node">
<title>N28</title>
<polygon fill="none" stroke="black" points="1298,-83.5 1298,-119.5 1531,-119.5 1531,-83.5 1298,-83.5"/>
<text text-anchor="middle" x="1350" y="-97.8" font-family="Times,serif" font-size="14.00">NODE TYPE</text>
<polyline fill="none" stroke="black" points="1402,-83.5 1402,-119.5 "/>
<text text-anchor="middle" x="1466.5" y="-97.8" font-family="Times,serif" font-size="14.00">Type: TYPE INT</text>
</g>
<!-- N27&#45;&gt;N28 -->
<g id="edge21" class="edge">
<title>N27&#45;&gt;N28</title>
<path fill="none" stroke="black" d="M1595.21,-161.44C1560.11,-149.99 1513.7,-134.86 1476.7,-122.79"/>
<polygon fill="black" stroke="black" points="1477.61,-119.4 1467.02,-119.63 1475.44,-126.06 1477.61,-119.4"/>
</g>
<!-- N29 -->
<g id="node29" class="node">
<title>N29</title>
<polygon fill="none" stroke="black" points="1549.5,-83.5 1549.5,-119.5 1745.5,-119.5 1745.5,-83.5 1549.5,-83.5"/>
<text text-anchor="middle" x="1603" y="-97.8" font-family="Times,serif" font-size="14.00">NODE DECL</text>
<polyline fill="none" stroke="black" points="1656.5,-83.5 1656.5,-119.5 "/>
<text text-anchor="middle" x="1701" y="-97.8" font-family="Times,serif" font-size="14.00">Nb. ops: 2</text>
</g>
<!-- N27&#45;&gt;N29 -->
<g id="edge24" class="edge">
<title>N27&#45;&gt;N29</title>
<path fill="none" stroke="black" d="M1647.5,-161.25C1647.5,-152.02 1647.5,-140.43 1647.5,-129.99"/>
<polygon fill="black" stroke="black" points="1651,-129.68 1647.5,-119.68 1644,-129.68 1651,-129.68"/>
</g>
<!-- N30 -->
<g id="node30" class="node">
<title>N30</title>
<polygon fill="none" stroke="black" points="1343,-0.5 1343,-46.5 1606,-46.5 1606,-0.5 1343,-0.5"/>
<text text-anchor="middle" x="1400" y="-31.3" font-family="Times,serif" font-size="14.00">NODE IDENT</text>
<polyline fill="none" stroke="black" points="1457,-23.5 1457,-46.5 "/>
<text text-anchor="middle" x="1531.5" y="-31.3" font-family="Times,serif" font-size="14.00">Type: TYPE NONE</text>
<polyline fill="none" stroke="black" points="1343,-23.5 1606,-23.5 "/>
<text text-anchor="middle" x="1388.5" y="-8.3" font-family="Times,serif" font-size="14.00">Global: 0</text>
<polyline fill="none" stroke="black" points="1434,-0.5 1434,-23.5 "/>
<text text-anchor="middle" x="1475.5" y="-8.3" font-family="Times,serif" font-size="14.00">Ident: b</text>
<polyline fill="none" stroke="black" points="1517,-0.5 1517,-23.5 "/>
<text text-anchor="middle" x="1561.5" y="-8.3" font-family="Times,serif" font-size="14.00">Offset: 0</text>
</g>
<!-- N29&#45;&gt;N30 -->
<g id="edge22" class="edge">
<title>N29&#45;&gt;N30</title>
<path fill="none" stroke="black" d="M1608.68,-83.44C1586.68,-73.78 1558.7,-61.49 1533.99,-50.64"/>
<polygon fill="black" stroke="black" points="1535.27,-47.37 1524.7,-46.55 1532.45,-53.78 1535.27,-47.37"/>
</g>
<!-- N31 -->
<g id="node31" class="node">
<title>N31</title>
<polygon fill="none" stroke="black" points="1624,-5.5 1624,-41.5 1683,-41.5 1683,-5.5 1624,-5.5"/>
<text text-anchor="middle" x="1653.5" y="-19.8" font-family="Times,serif" font-size="14.00">NULL</text>
</g>
<!-- N29&#45;&gt;N31 -->
<g id="edge23" class="edge">
<title>N29&#45;&gt;N31</title>
<path fill="none" stroke="black" d="M1648.86,-83.25C1649.6,-73.93 1650.52,-62.19 1651.36,-51.67"/>
<polygon fill="black" stroke="black" points="1654.85,-51.92 1652.14,-41.68 1647.87,-51.37 1654.85,-51.92"/>
</g>
<!-- N33 -->
<g id="node33" class="node">
<title>N33</title>
<polygon fill="none" stroke="black" points="1763,-83.5 1763,-119.5 1996,-119.5 1996,-83.5 1763,-83.5"/>
<text text-anchor="middle" x="1815" y="-97.8" font-family="Times,serif" font-size="14.00">NODE TYPE</text>
<polyline fill="none" stroke="black" points="1867,-83.5 1867,-119.5 "/>
<text text-anchor="middle" x="1931.5" y="-97.8" font-family="Times,serif" font-size="14.00">Type: TYPE INT</text>
</g>
<!-- N32&#45;&gt;N33 -->
<g id="edge26" class="edge">
<title>N32&#45;&gt;N33</title>
<path fill="none" stroke="black" d="M1879.5,-161.25C1879.5,-152.02 1879.5,-140.43 1879.5,-129.99"/>
<polygon fill="black" stroke="black" points="1883,-129.68 1879.5,-119.68 1876,-129.68 1883,-129.68"/>
</g>
<!-- N34 -->
<g id="node34" class="node">
<title>N34</title>
<polygon fill="none" stroke="black" points="2014.5,-83.5 2014.5,-119.5 2210.5,-119.5 2210.5,-83.5 2014.5,-83.5"/>
<text text-anchor="middle" x="2068" y="-97.8" font-family="Times,serif" font-size="14.00">NODE DECL</text>
<polyline fill="none" stroke="black" points="2121.5,-83.5 2121.5,-119.5 "/>
<text text-anchor="middle" x="2166" y="-97.8" font-family="Times,serif" font-size="14.00">Nb. ops: 2</text>
</g>
<!-- N32&#45;&gt;N34 -->
<g id="edge29" class="edge">
<title>N32&#45;&gt;N34</title>
<path fill="none" stroke="black" d="M1931.79,-161.44C1966.89,-149.99 2013.3,-134.86 2050.3,-122.79"/>
<polygon fill="black" stroke="black" points="2051.56,-126.06 2059.98,-119.63 2049.39,-119.4 2051.56,-126.06"/>
</g>
<!-- N35 -->
<g id="node35" class="node">
<title>N35</title>
<polygon fill="none" stroke="black" points="1844,-0.5 1844,-46.5 2107,-46.5 2107,-0.5 1844,-0.5"/>
<text text-anchor="middle" x="1901" y="-31.3" font-family="Times,serif" font-size="14.00">NODE IDENT</text>
<polyline fill="none" stroke="black" points="1958,-23.5 1958,-46.5 "/>
<text text-anchor="middle" x="2032.5" y="-31.3" font-family="Times,serif" font-size="14.00">Type: TYPE NONE</text>
<polyline fill="none" stroke="black" points="1844,-23.5 2107,-23.5 "/>
<text text-anchor="middle" x="1889.5" y="-8.3" font-family="Times,serif" font-size="14.00">Global: 0</text>
<polyline fill="none" stroke="black" points="1935,-0.5 1935,-23.5 "/>
<text text-anchor="middle" x="1976.5" y="-8.3" font-family="Times,serif" font-size="14.00">Ident: c</text>
<polyline fill="none" stroke="black" points="2018,-0.5 2018,-23.5 "/>
<text text-anchor="middle" x="2062.5" y="-8.3" font-family="Times,serif" font-size="14.00">Offset: 0</text>
</g>
<!-- N34&#45;&gt;N35 -->
<g id="edge27" class="edge">
<title>N34&#45;&gt;N35</title>
<path fill="none" stroke="black" d="M2081.75,-83.44C2064.8,-74.04 2043.35,-62.14 2024.17,-51.5"/>
<polygon fill="black" stroke="black" points="2025.7,-48.34 2015.26,-46.55 2022.3,-54.47 2025.7,-48.34"/>
</g>
<!-- N36 -->
<g id="node36" class="node">
<title>N36</title>
<polygon fill="none" stroke="black" points="2125,-0.5 2125,-46.5 2374,-46.5 2374,-0.5 2125,-0.5"/>
<text text-anchor="middle" x="2185" y="-31.3" font-family="Times,serif" font-size="14.00">NODE INTVAL</text>
<polyline fill="none" stroke="black" points="2245,-23.5 2245,-46.5 "/>
<text text-anchor="middle" x="2309.5" y="-31.3" font-family="Times,serif" font-size="14.00">Type: TYPE INT</text>
<polyline fill="none" stroke="black" points="2125,-23.5 2374,-23.5 "/>
<text text-anchor="middle" x="2249.5" y="-8.3" font-family="Times,serif" font-size="14.00">Value: 0</text>
</g>
<!-- N34&#45;&gt;N36 -->
<g id="edge28" class="edge">
<title>N34&#45;&gt;N36</title>
<path fill="none" stroke="black" d="M2143.25,-83.44C2160.2,-74.04 2181.65,-62.14 2200.83,-51.5"/>
<polygon fill="black" stroke="black" points="2202.7,-54.47 2209.74,-46.55 2199.3,-48.34 2202.7,-54.47"/>
</g>
<!-- N38 -->
<g id="node38" class="node">
<title>N38</title>
<polygon fill="none" stroke="black" points="1740,-239.5 1740,-285.5 2003,-285.5 2003,-239.5 1740,-239.5"/>
<text text-anchor="middle" x="1797" y="-270.3" font-family="Times,serif" font-size="14.00">NODE IDENT</text>
<polyline fill="none" stroke="black" points="1854,-262.5 1854,-285.5 "/>
<text text-anchor="middle" x="1928.5" y="-270.3" font-family="Times,serif" font-size="14.00">Type: TYPE NONE</text>
<polyline fill="none" stroke="black" points="1740,-262.5 2003,-262.5 "/>
<text text-anchor="middle" x="1785.5" y="-247.3" font-family="Times,serif" font-size="14.00">Global: 0</text>
<polyline fill="none" stroke="black" points="1831,-239.5 1831,-262.5 "/>
<text text-anchor="middle" x="1872.5" y="-247.3" font-family="Times,serif" font-size="14.00">Ident: c</text>
<polyline fill="none" stroke="black" points="1914,-239.5 1914,-262.5 "/>
<text text-anchor="middle" x="1958.5" y="-247.3" font-family="Times,serif" font-size="14.00">Offset: 0</text>
</g>
<!-- N37&#45;&gt;N38 -->
<g id="edge33" class="edge">
<title>N37&#45;&gt;N38</title>
<path fill="none" stroke="black" d="M1880.78,-322.25C1879.53,-314.36 1878.01,-304.75 1876.57,-295.6"/>
<polygon fill="black" stroke="black" points="1880,-294.92 1874.99,-285.59 1873.09,-296.01 1880,-294.92"/>
</g>
<!-- N39 -->
<g id="node39" class="node">
<title>N39</title>
<polygon fill="none" stroke="black" points="2021.5,-244.5 2021.5,-280.5 2365.5,-280.5 2365.5,-244.5 2021.5,-244.5"/>
<text text-anchor="middle" x="2074.5" y="-258.8" font-family="Times,serif" font-size="14.00">NODE PLUS</text>
<polyline fill="none" stroke="black" points="2127.5,-244.5 2127.5,-280.5 "/>
<text text-anchor="middle" x="2202" y="-258.8" font-family="Times,serif" font-size="14.00">Type: TYPE NONE</text>
<polyline fill="none" stroke="black" points="2276.5,-244.5 2276.5,-280.5 "/>
<text text-anchor="middle" x="2321" y="-258.8" font-family="Times,serif" font-size="14.00">Nb. ops: 2</text>
</g>
<!-- N37&#45;&gt;N39 -->
<g id="edge36" class="edge">
<title>N37&#45;&gt;N39</title>
<path fill="none" stroke="black" d="M1953.07,-322.44C2000.85,-310.73 2064.38,-295.16 2114.14,-282.96"/>
<polygon fill="black" stroke="black" points="2115.02,-286.35 2123.89,-280.56 2113.35,-279.55 2115.02,-286.35"/>
</g>
<!-- N40 -->
<g id="node40" class="node">
<title>N40</title>
<polygon fill="none" stroke="black" points="2019,-156.5 2019,-202.5 2282,-202.5 2282,-156.5 2019,-156.5"/>
<text text-anchor="middle" x="2076" y="-187.3" font-family="Times,serif" font-size="14.00">NODE IDENT</text>
<polyline fill="none" stroke="black" points="2133,-179.5 2133,-202.5 "/>
<text text-anchor="middle" x="2207.5" y="-187.3" font-family="Times,serif" font-size="14.00">Type: TYPE NONE</text>
<polyline fill="none" stroke="black" points="2019,-179.5 2282,-179.5 "/>
<text text-anchor="middle" x="2064.5" y="-164.3" font-family="Times,serif" font-size="14.00">Global: 0</text>
<polyline fill="none" stroke="black" points="2110,-156.5 2110,-179.5 "/>
<text text-anchor="middle" x="2151.5" y="-164.3" font-family="Times,serif" font-size="14.00">Ident: b</text>
<polyline fill="none" stroke="black" points="2193,-156.5 2193,-179.5 "/>
<text text-anchor="middle" x="2237.5" y="-164.3" font-family="Times,serif" font-size="14.00">Offset: 0</text>
</g>
<!-- N39&#45;&gt;N40 -->
<g id="edge34" class="edge">
<title>N39&#45;&gt;N40</title>
<path fill="none" stroke="black" d="M2184.38,-244.32C2179.33,-234.82 2172.91,-222.71 2167.01,-211.6"/>
<polygon fill="black" stroke="black" points="2170.01,-209.78 2162.23,-202.59 2163.82,-213.06 2170.01,-209.78"/>
</g>
<!-- N41 -->
<g id="node41" class="node">
<title>N41</title>
<polygon fill="none" stroke="black" points="2300,-156.5 2300,-202.5 2563,-202.5 2563,-156.5 2300,-156.5"/>
<text text-anchor="middle" x="2357" y="-187.3" font-family="Times,serif" font-size="14.00">NODE IDENT</text>
<polyline fill="none" stroke="black" points="2414,-179.5 2414,-202.5 "/>
<text text-anchor="middle" x="2488.5" y="-187.3" font-family="Times,serif" font-size="14.00">Type: TYPE NONE</text>
<polyline fill="none" stroke="black" points="2300,-179.5 2563,-179.5 "/>
<text text-anchor="middle" x="2345.5" y="-164.3" font-family="Times,serif" font-size="14.00">Global: 0</text>
<polyline fill="none" stroke="black" points="2391,-156.5 2391,-179.5 "/>
<text text-anchor="middle" x="2432.5" y="-164.3" font-family="Times,serif" font-size="14.00">Ident: a</text>
<polyline fill="none" stroke="black" points="2474,-156.5 2474,-179.5 "/>
<text text-anchor="middle" x="2518.5" y="-164.3" font-family="Times,serif" font-size="14.00">Offset: 0</text>
</g>
<!-- N39&#45;&gt;N41 -->
<g id="edge35" class="edge">
<title>N39&#45;&gt;N41</title>
<path fill="none" stroke="black" d="M2243.68,-244.42C2276.48,-233.26 2319.91,-218.48 2356.75,-205.94"/>
<polygon fill="black" stroke="black" points="2358.11,-209.17 2366.45,-202.64 2355.86,-202.55 2358.11,-209.17"/>
</g>
</g>
</svg>
